<?xml version="1.0" standalone="no"?>
<!DOCTYPE svg PUBLIC "-//W3C//DTD SVG 20010904//EN"
 "http://www.w3.org/TR/2001/REC-SVG-20010904/DTD/svg10.dtd">
<svg version="1.0" xmlns="http://www.w3.org/2000/svg"
 width="700.000000pt" height="700.000000pt" viewBox="0 0 700.000000 700.000000"
 preserveAspectRatio="xMidYMid meet">
<metadata>
Created by potrace 1.14, written by Peter Selinger 2001-2017
</metadata>
<g transform="translate(0.000000,700.000000) scale(0.100000,-0.100000)"
fill="#000000" stroke="none">
<path d="M1739 5136 c-2 -2 -35 -6 -74 -10 -38 -3 -81 -8 -95 -10 -14 -3 -42
-7 -64 -11 -129 -19 -321 -81 -456 -149 -421 -209 -708 -629 -766 -1121 -3
-33 -8 -73 -10 -90 -6 -42 -5 -365 0 -395 3 -14 7 -52 11 -85 3 -33 8 -67 10
-75 2 -8 6 -26 9 -40 33 -183 117 -389 224 -549 114 -172 328 -359 521 -456
152 -76 367 -140 536 -160 28 -3 66 -9 85 -12 71 -11 373 -9 473 3 169 20 187
24 307 55 174 46 345 116 493 203 l42 25 -1 198 c-1 109 -2 206 -3 216 -1 15
-10 11 -48 -21 -163 -135 -455 -278 -627 -307 -17 -3 -38 -8 -46 -10 -62 -18
-193 -29 -330 -29 -571 1 -935 234 -1106 709 -9 25 -8 22 -32 125 -19 80 -30
149 -38 230 -6 60 -5 302 1 370 21 235 91 451 203 619 51 76 176 199 259 252
206 135 437 190 763 183 85 -1 166 -5 180 -8 14 -4 44 -9 67 -11 115 -15 384
-110 473 -169 19 -12 42 -25 51 -28 19 -7 147 -97 192 -135 16 -12 32 -23 35
-23 9 0 8 413 -1 427 -12 19 -165 100 -264 140 -148 60 -353 114 -528 138 -52
7 -440 16 -446 11z"/>
<path d="M3691 3554 l0 -1531 202 -1 c111 0 211 1 222 3 20 4 20 12 20 1339 0
734 2 1332 6 1328 3 -4 45 -104 94 -222 48 -118 105 -255 125 -305 21 -49 108
-261 194 -470 87 -209 163 -393 170 -410 8 -16 51 -120 96 -230 45 -110 88
-213 96 -229 8 -16 14 -33 14 -37 0 -4 13 -36 29 -71 16 -35 32 -73 36 -85 6
-23 7 -23 235 -23 l229 0 19 43 c11 23 39 89 62 147 23 58 52 128 64 155 12
28 179 431 372 896 l349 847 5 -1337 5 -1336 220 0 220 0 1 1520 c0 836 -1
1525 -3 1530 -2 6 -124 10 -340 10 l-337 0 -41 -100 c-40 -96 -271 -653 -567
-1365 -76 -184 -164 -397 -195 -473 -31 -75 -60 -134 -64 -130 -4 5 -67 152
-139 328 -73 176 -138 334 -145 350 -7 17 -50 120 -94 230 -45 110 -86 209
-91 220 -9 18 -172 412 -322 780 -34 83 -64 152 -66 155 -2 3 -156 5 -343 5
l-338 0 0 -1531z"/>
</g>
</svg>
